<svg width="220" height="160" viewBox="0 0 220 160" fill="none" xmlns="http://www.w3.org/2000/svg">
<path d="M148.574 50.7071L150.281 49H147.867H122.023C117.044 49 113.023 44.979 113.023 40C113.023 35.021 117.044 31 122.023 31H172.023C177.002 31 181.023 35.021 181.023 40V90C181.023 94.979 177.002 99 172.023 99C167.044 99 163.023 94.979 163.023 90V64.1562V61.743L161.317 63.4489L147.16 77.5968L108.379 116.355L108.379 116.355C104.863 119.871 99.1525 119.871 95.6368 116.355L62.7305 83.4491L62.0237 82.7423L61.3166 83.4489L18.3791 126.355L18.3788 126.355C14.8631 129.871 9.15252 129.871 5.63679 126.355C2.12107 122.84 2.12107 117.129 5.63679 113.613L55.6368 63.6134C59.1525 60.0976 64.8631 60.0976 68.3788 63.6134L101.316 96.5509L102.023 97.258L102.731 96.5509L134.418 64.8634L148.574 50.7071Z" stroke="#D68655" stroke-width="2"/>
</svg>
