<svg width="160" height="160" viewBox="0 0 160 160" fill="none" xmlns="http://www.w3.org/2000/svg">
<path d="M10 11C14.979 11 19 15.021 19 20V125C19 128.302 21.6977 131 25 131H150C154.979 131 159 135.021 159 140C159 144.979 154.979 149 150 149H25C11.7398 149 1 138.26 1 125V20C1 15.021 5.02103 11 10 11ZM50 91C54.979 91 59 95.021 59 100C59 104.979 54.979 109 50 109C45.021 109 41 104.979 41 100C41 95.021 45.021 91 50 91ZM89 100C89 104.979 84.979 109 80 109C75.021 109 71 104.979 71 100C71 95.021 75.021 91 80 91C84.979 91 89 95.021 89 100ZM110 91C114.979 91 119 95.021 119 100C119 104.979 114.979 109 110 109C105.021 109 101 104.979 101 100C101 95.021 105.021 91 110 91ZM149 100C149 104.979 144.979 109 140 109C135.021 109 131 104.979 131 100C131 95.021 135.021 91 140 91C144.979 91 149 95.021 149 100Z" stroke="#D68655" stroke-width="2"/>
</svg>
