<svg width="140" height="160" viewBox="0 0 140 160" fill="none" xmlns="http://www.w3.org/2000/svg">
<g clip-path="url(#clip0_2258_362)">
<path d="M44 60V61H45H95H96V60V45C96 30.6352 84.3648 19 70 19C55.6352 19 44 30.6352 44 45V60ZM25 61H26V60V45C26 20.7085 45.7085 1 70 1C94.2915 1 114 20.7085 114 45V60V61H115H120C130.479 61 139 69.521 139 80V140C139 150.479 130.479 159 120 159H20C9.52104 159 1 150.479 1 140V80C1 69.521 9.52104 61 20 61H25Z" stroke="white" stroke-width="2"/>
</g>
<defs>
<clipPath id="clip0_2258_362">
<rect width="140" height="160" fill="white"/>
</clipPath>
</defs>
</svg>
