<svg width="198" height="40" viewBox="0 0 198 40" fill="none" xmlns="http://www.w3.org/2000/svg">
<g clip-path="url(#clip0_1_527)">
<path d="M37.4615 15.3419H58.8851V24.3806H37.4615V15.3419Z" fill="#1E190F"/>
<path d="M18.8496 4.04361C16.1964 1.62538 12.2364 0.396439 7.0092 0.396439H0V9.19723H0.8712H5.5044C9.4248 9.19723 11.3652 10.8226 11.3652 14.0337C11.3652 17.2844 9.4248 18.9098 5.5044 18.9098H0.8316H0V27.671H7.0488C12.276 27.671 16.1964 26.4817 18.8892 24.0634C21.5424 21.6452 22.8888 18.2755 22.8888 14.0733C22.8492 9.75224 21.5424 6.42221 18.8496 4.04361Z" fill="#1E190F"/>
<path d="M94.4856 4.04361C91.8324 1.62538 87.8724 0.396439 82.6452 0.396439H75.5964V9.19723H76.4676H81.1008C85.0212 9.19723 86.9616 10.8226 86.9616 14.0337C86.9616 17.2844 85.0212 18.9098 81.1008 18.9098H76.4676H75.5964V27.671H82.6452C87.8724 27.671 91.7928 26.4817 94.4856 24.0634C97.1388 21.6452 98.4852 18.2755 98.4852 14.0733C98.4456 9.75224 97.1388 6.38256 94.4856 4.04361Z" fill="#1E190F"/>
<path d="M111.514 39.6432V0.356781H121.77V39.6432C121.73 39.6432 111.514 39.6432 111.514 39.6432Z" fill="#1E190F"/>
<path d="M37.4615 0.356781H58.8851V9.39543H37.4615V0.356781Z" fill="#1E190F"/>
<path d="M166.32 26.6799L166.162 39.8414L137.095 13.5976L137.214 0.0396423L166.32 26.6799Z" fill="#1E190F"/>
<path d="M37.4615 30.6046H58.8851V39.6432H37.4615V30.6046Z" fill="#1E190F"/>
<path d="M196.812 27.2349L194.119 19.7423L190.872 10.7433L194.159 1.62536C193.129 1.22893 192.02 1.03072 190.832 1.03072C185.526 1.03072 181.21 5.35183 181.21 10.664C181.21 11.6551 181.368 12.5669 181.606 13.4787L184.298 20.9713L187.506 29.9306L184.219 39.0486C185.249 39.445 186.358 39.6432 187.546 39.6432C192.852 39.6432 197.168 35.3221 197.168 30.0099C197.208 29.0585 197.05 28.107 196.812 27.2349Z" fill="#1E190F"/>
</g>
<defs>
<clipPath id="clip0_1_527">
<rect width="198" height="40" fill="white"/>
</clipPath>
</defs>
</svg>
